<svg width="512" height="512" viewBox="0 0 512 512" fill="none" xmlns="http://www.w3.org/2000/svg">
<path d="M444.37 7.68H183.345L182.923 7.67996C170.295 7.67828 163.939 7.67743 150.505 21.5905C136.922 35.6575 28.6673 206.226 28.6673 206.226C23.0004 213.768 19.6423 223.144 19.6423 233.305V458.93C19.6423 483.852 39.8455 504.055 64.7673 504.055H308.442C320.292 504.055 331.076 499.487 339.127 492.016L476.393 354.691C484.7 346.515 489.845 335.18 489.845 322.652V52.805C489.845 27.8832 469.485 7.68 444.37 7.68Z" fill="#BEB2F9"/>
<path d="M313.152 58.7871C314.146 54.1319 320.856 54.3325 321.57 59.0388C329.844 113.59 369.745 158.006 423.099 172.061L446.415 178.202C451.734 179.603 451.819 187.123 446.534 188.644L420.135 196.241C368.335 211.15 329.885 254.751 321.573 308.01C320.842 312.696 314.168 312.901 313.151 308.268L312.747 306.431C301.115 253.472 261.797 210.919 209.922 195.142L188.951 188.764C183.629 187.146 183.719 179.58 189.078 178.088L206.904 173.126C260.389 158.238 301.178 114.876 312.769 60.5812L313.152 58.7871Z" fill="white"/>
</svg>
