<svg width="572" height="195" viewBox="0 0 572 195" fill="none" xmlns="http://www.w3.org/2000/svg">
<path d="M187.627 90.7822V6.775H206.308V90.7822H187.627ZM239.625 90.7822V6.775H258.426V90.7822H239.625ZM198.812 55.6801V39.4974H245.813V55.6801H198.812ZM298.581 92.0911C293.266 92.0911 288.546 91.0202 284.421 88.8784C280.376 86.6572 277.203 83.6428 274.902 79.8351C272.602 75.9481 271.452 71.5058 271.452 66.5082V32.9529H289.657V66.2702C289.657 68.2534 289.974 69.9589 290.609 71.3868C291.323 72.8147 292.354 73.9253 293.703 74.7185C295.051 75.5118 296.677 75.9084 298.581 75.9084C301.278 75.9084 303.42 75.0755 305.007 73.4096C306.593 71.6644 307.387 69.2846 307.387 66.2702V32.9529H325.592V66.3892C325.592 71.4661 324.442 75.9481 322.141 79.8351C319.841 83.6428 316.668 86.6572 312.622 88.8784C308.577 91.0202 303.896 92.0911 298.581 92.0911ZM337.023 90.7822V32.9529H355.228V90.7822H337.023ZM374.029 90.7822V56.989C374.029 54.0539 373.116 51.793 371.292 50.2065C369.547 48.5406 367.365 47.7077 364.747 47.7077C362.923 47.7077 361.297 48.1043 359.869 48.8976C358.441 49.6115 357.291 50.6428 356.418 51.9914C355.625 53.3399 355.228 55.0058 355.228 56.989L348.208 53.8952C348.208 49.2942 349.199 45.3676 351.183 42.1152C353.166 38.7834 355.863 36.245 359.274 34.4998C362.685 32.6752 366.532 31.763 370.816 31.763C374.862 31.763 378.471 32.6752 381.644 34.4998C384.896 36.3243 387.475 38.8627 389.378 42.1152C391.282 45.3676 392.234 49.2546 392.234 53.7762V90.7822H374.029ZM411.035 90.7822V56.989C411.035 54.0539 410.122 51.793 408.298 50.2065C406.553 48.5406 404.371 47.7077 401.753 47.7077C399.929 47.7077 398.303 48.1043 396.875 48.8976C395.447 49.6115 394.297 50.6428 393.424 51.9914C392.631 53.3399 392.234 55.0058 392.234 56.989L381.763 55.5611C381.922 50.6428 383.072 46.4385 385.214 42.9481C387.435 39.3784 390.33 36.6416 393.9 34.7377C397.549 32.7546 401.634 31.763 406.156 31.763C410.598 31.763 414.525 32.7149 417.936 34.6188C421.427 36.4433 424.163 39.1007 426.146 42.5911C428.209 46.0022 429.24 50.1272 429.24 54.9661V90.7822H411.035ZM465.062 91.9721C459.747 91.9721 454.987 90.6632 450.783 88.0454C446.658 85.4277 443.366 81.8579 440.907 77.3363C438.527 72.8147 437.337 67.6584 437.337 61.8676C437.337 56.0767 438.527 50.9204 440.907 46.3988C443.366 41.8772 446.658 38.3075 450.783 35.6897C454.987 33.0719 459.747 31.763 465.062 31.763C468.949 31.763 472.439 32.5166 475.533 34.0238C478.706 35.531 481.284 37.6332 483.267 40.3303C485.251 42.9481 486.361 45.9625 486.599 49.3736V74.3616C486.361 77.7726 485.251 80.8267 483.267 83.5238C481.364 86.1416 478.825 88.2041 475.652 89.7113C472.479 91.2185 468.949 91.9721 465.062 91.9721ZM468.751 75.5515C472.638 75.5515 475.771 74.2822 478.151 71.7438C480.531 69.126 481.721 65.8339 481.721 61.8676C481.721 59.1704 481.165 56.7906 480.055 54.7281C479.023 52.6656 477.516 51.0791 475.533 49.9685C473.629 48.7786 471.408 48.1837 468.87 48.1837C466.331 48.1837 464.07 48.7786 462.087 49.9685C460.183 51.0791 458.636 52.6656 457.447 54.7281C456.336 56.7906 455.781 59.1704 455.781 61.8676C455.781 64.4853 456.336 66.8255 457.447 68.888C458.557 70.9505 460.104 72.5767 462.087 73.7666C464.07 74.9565 466.291 75.5515 468.751 75.5515ZM481.007 90.7822V75.1945L483.743 61.1536L481.007 47.1128V32.9529H498.855V90.7822H481.007ZM549.87 90.7822V57.8219C549.87 54.8075 548.918 52.388 547.014 50.5635C545.189 48.6596 542.849 47.7077 539.993 47.7077C538.01 47.7077 536.265 48.144 534.758 49.0166C533.251 49.8099 532.061 50.9998 531.188 52.5863C530.315 54.0935 529.879 55.8387 529.879 57.8219L522.859 54.3712C522.859 49.8495 523.85 45.8832 525.833 42.4721C527.817 39.0611 530.553 36.4433 534.044 34.6188C537.613 32.7149 541.62 31.763 546.062 31.763C550.345 31.763 554.113 32.7942 557.366 34.8567C560.698 36.8399 563.315 39.4974 565.219 42.8291C567.123 46.1608 568.075 49.8099 568.075 53.7762V90.7822H549.87ZM511.674 90.7822V32.9529H529.879V90.7822H511.674Z" fill="#121214"/>
<path d="M194.451 144.092V135.92H213.286C215.877 135.92 218.169 135.389 220.163 134.325C222.222 133.262 223.817 131.768 224.946 129.841C226.142 127.914 226.74 125.622 226.74 122.964C226.74 120.307 226.142 118.015 224.946 116.088C223.817 114.161 222.222 112.666 220.163 111.603C218.169 110.54 215.877 110.009 213.286 110.009H194.451V101.837H213.884C218.136 101.837 221.923 102.7 225.245 104.428C228.634 106.155 231.291 108.613 233.218 111.803C235.211 114.925 236.208 118.646 236.208 122.964C236.208 127.216 235.211 130.937 233.218 134.126C231.291 137.249 228.634 139.707 225.245 141.501C221.923 143.228 218.136 144.092 213.884 144.092H194.451ZM188.172 171V101.837H197.54V171H188.172ZM247.015 171V123.662H255.985V171H247.015ZM255.985 143.992L252.596 142.498C252.596 136.452 253.991 131.635 256.782 128.047C259.572 124.459 263.592 122.665 268.841 122.665C271.232 122.665 273.392 123.097 275.318 123.961C277.245 124.758 279.039 126.12 280.7 128.047L274.82 134.126C273.824 133.063 272.727 132.299 271.531 131.834C270.335 131.369 268.94 131.136 267.346 131.136C264.024 131.136 261.3 132.199 259.174 134.325C257.048 136.452 255.985 139.674 255.985 143.992ZM307.084 171.997C302.433 171.997 298.247 170.9 294.527 168.708C290.806 166.515 287.85 163.559 285.657 159.838C283.465 156.051 282.368 151.832 282.368 147.181C282.368 142.597 283.465 138.478 285.657 134.824C287.85 131.103 290.806 128.147 294.527 125.954C298.247 123.762 302.433 122.665 307.084 122.665C311.668 122.665 315.821 123.762 319.541 125.954C323.328 128.08 326.318 131.004 328.511 134.724C330.703 138.445 331.799 142.597 331.799 147.181C331.799 151.832 330.703 156.051 328.511 159.838C326.318 163.559 323.328 166.515 319.541 168.708C315.821 170.9 311.668 171.997 307.084 171.997ZM307.084 163.326C310.074 163.326 312.731 162.629 315.057 161.233C317.382 159.838 319.209 157.945 320.538 155.553C321.867 153.095 322.531 150.304 322.531 147.181C322.531 144.125 321.833 141.401 320.438 139.009C319.109 136.618 317.282 134.757 314.957 133.429C312.698 132.033 310.074 131.336 307.084 131.336C304.094 131.336 301.437 132.033 299.111 133.429C296.786 134.757 294.959 136.618 293.63 139.009C292.301 141.401 291.637 144.125 291.637 147.181C291.637 150.304 292.301 153.095 293.63 155.553C294.959 157.945 296.786 159.838 299.111 161.233C301.437 162.629 304.094 163.326 307.084 163.326ZM361.538 191.829C356.688 191.829 352.37 190.932 348.583 189.138C344.862 187.344 341.872 184.819 339.613 181.564L345.393 175.684C347.32 178.142 349.612 180.003 352.27 181.265C354.928 182.594 358.083 183.258 361.738 183.258C366.588 183.258 370.408 181.962 373.198 179.371C376.055 176.847 377.484 173.425 377.484 169.106V157.347L379.078 146.683L377.484 136.119V123.662H386.453V169.106C386.453 173.624 385.39 177.577 383.264 180.966C381.204 184.354 378.281 187.012 374.494 188.939C370.773 190.865 366.455 191.829 361.538 191.829ZM361.538 170.203C357.22 170.203 353.333 169.173 349.878 167.113C346.49 165.054 343.799 162.23 341.806 158.642C339.813 154.988 338.816 150.902 338.816 146.384C338.816 141.866 339.813 137.847 341.806 134.325C343.799 130.738 346.49 127.914 349.878 125.854C353.333 123.728 357.22 122.665 361.538 122.665C365.259 122.665 368.548 123.396 371.404 124.858C374.261 126.32 376.52 128.379 378.181 131.037C379.909 133.628 380.839 136.684 380.972 140.205V152.762C380.772 156.217 379.809 159.273 378.082 161.931C376.421 164.522 374.162 166.549 371.305 168.01C368.448 169.472 365.192 170.203 361.538 170.203ZM363.332 161.732C366.255 161.732 368.813 161.101 371.006 159.838C373.265 158.576 374.992 156.815 376.188 154.556C377.384 152.231 377.982 149.54 377.982 146.484C377.982 143.428 377.351 140.77 376.088 138.511C374.893 136.186 373.198 134.392 371.006 133.13C368.813 131.801 366.222 131.136 363.232 131.136C360.243 131.136 357.618 131.801 355.359 133.13C353.1 134.392 351.307 136.186 349.978 138.511C348.715 140.77 348.084 143.394 348.084 146.384C348.084 149.374 348.715 152.032 349.978 154.357C351.307 156.682 353.1 158.509 355.359 159.838C357.685 161.101 360.342 161.732 363.332 161.732ZM399.618 171V123.662H408.587V171H399.618ZM408.587 143.992L405.199 142.498C405.199 136.452 406.594 131.635 409.385 128.047C412.175 124.459 416.195 122.665 421.443 122.665C423.835 122.665 425.995 123.097 427.921 123.961C429.848 124.758 431.642 126.12 433.303 128.047L427.423 134.126C426.426 133.063 425.33 132.299 424.134 131.834C422.938 131.369 421.543 131.136 419.949 131.136C416.627 131.136 413.903 132.199 411.776 134.325C409.65 136.452 408.587 139.674 408.587 143.992ZM458.192 171.997C453.873 171.997 449.953 170.934 446.432 168.808C442.911 166.615 440.12 163.658 438.061 159.938C436.068 156.217 435.071 152.032 435.071 147.381C435.071 142.73 436.068 138.544 438.061 134.824C440.12 131.103 442.878 128.147 446.332 125.954C449.854 123.762 453.807 122.665 458.192 122.665C461.78 122.665 464.969 123.429 467.759 124.958C470.616 126.419 472.908 128.479 474.636 131.136C476.363 133.728 477.326 136.751 477.526 140.205V154.457C477.326 157.845 476.363 160.868 474.636 163.526C472.975 166.183 470.716 168.276 467.859 169.804C465.068 171.266 461.846 171.997 458.192 171.997ZM459.687 163.526C464.138 163.526 467.726 162.031 470.45 159.041C473.174 155.985 474.536 152.098 474.536 147.381C474.536 144.125 473.905 141.302 472.642 138.91C471.447 136.452 469.719 134.558 467.46 133.229C465.201 131.834 462.577 131.136 459.587 131.136C456.597 131.136 453.94 131.834 451.614 133.229C449.355 134.624 447.562 136.551 446.233 139.009C444.97 141.401 444.339 144.159 444.339 147.281C444.339 150.47 444.97 153.294 446.233 155.752C447.562 158.144 449.389 160.038 451.714 161.433C454.039 162.828 456.697 163.526 459.687 163.526ZM473.938 171V158.244L475.632 146.683L473.938 135.222V123.662H483.007V171H473.938ZM496.065 171V123.662H505.035V171H496.065ZM528.056 171V142.398C528.056 138.877 526.96 136.119 524.767 134.126C522.641 132.067 519.95 131.037 516.695 131.037C514.502 131.037 512.542 131.502 510.815 132.432C509.088 133.362 507.692 134.658 506.629 136.319C505.566 137.98 505.035 139.973 505.035 142.298L501.347 140.504C501.347 136.917 502.111 133.794 503.64 131.136C505.234 128.479 507.393 126.419 510.117 124.958C512.841 123.429 515.898 122.665 519.286 122.665C522.608 122.665 525.598 123.396 528.255 124.858C530.979 126.32 533.105 128.379 534.633 131.037C536.228 133.694 537.025 136.85 537.025 140.504V171H528.056ZM560.047 171V142.398C560.047 138.877 558.95 136.119 556.758 134.126C554.632 132.067 551.974 131.037 548.785 131.037C546.593 131.037 544.599 131.502 542.806 132.432C541.078 133.362 539.683 134.658 538.62 136.319C537.557 137.98 537.025 139.973 537.025 142.298L531.943 140.504C532.142 136.85 533.105 133.728 534.833 131.136C536.627 128.479 538.919 126.419 541.709 124.958C544.5 123.429 547.556 122.665 550.878 122.665C554.333 122.665 557.422 123.396 560.146 124.858C562.87 126.32 565.029 128.379 566.624 131.037C568.285 133.694 569.115 136.883 569.115 140.604V171H560.047Z" fill="#121214"/>
<path d="M144.005 7.00488H57.3473L57.2074 7.00487C53.0151 7.00431 50.9048 7.00403 46.4449 11.623C41.9356 16.2931 5.9962 72.9198 5.9962 72.9198C4.11485 75.4238 3 78.5366 3 81.9098V156.815C3 165.089 9.70721 171.796 17.981 171.796H98.8783C102.812 171.796 106.392 170.279 109.065 167.799L154.636 122.209C157.394 119.494 159.102 115.731 159.102 111.572V21.9859C159.102 13.7121 152.343 7.00488 144.005 7.00488Z" fill="#B3A6FF"/>
<path d="M101.699 21.4766C102.028 19.9311 104.256 19.9977 104.493 21.5601C107.24 39.6704 120.487 54.4162 138.2 59.0821L145.94 61.1211C147.706 61.5862 147.734 64.0825 145.98 64.5875L137.216 67.1098C120.019 72.0592 107.254 86.5345 104.494 104.216C104.251 105.771 102.036 105.839 101.698 104.302L101.564 103.692C97.7022 86.1097 84.6494 71.9825 67.4273 66.7448L60.4654 64.6276C58.6984 64.0902 58.7283 61.5783 60.5075 61.0831L66.4256 59.4358C84.1818 54.4933 97.7233 40.0973 101.571 22.0722L101.699 21.4766Z" fill="white"/>
</svg>
