<svg width="200" height="200" viewBox="0 0 200 200" fill="none" xmlns="http://www.w3.org/2000/svg">
<path d="M173.582 3H71.6191L71.4544 2.99999C66.5217 2.99933 64.0386 2.999 58.791 8.43378C53.4853 13.9287 11.1982 80.5569 11.1982 80.5569C8.98461 83.5032 7.67285 87.1658 7.67285 91.1348V179.27C7.67285 189.005 15.5647 196.896 25.2998 196.896H120.485C125.114 196.896 129.326 195.112 132.472 192.194L186.091 138.551C189.336 135.357 191.346 130.93 191.346 126.036V20.627C191.346 10.8919 183.393 3 173.582 3Z" fill="#BEB2F9"/>
<path d="M122.325 22.9637C122.713 21.1453 125.334 21.2236 125.613 23.062C128.845 44.3709 144.432 61.7212 165.273 67.2112L174.381 69.6103C176.459 70.1576 176.492 73.0947 174.427 73.689L164.115 76.6568C143.881 82.4804 128.861 99.5122 125.614 120.316C125.329 122.147 122.722 122.227 122.325 120.417L122.167 119.7C117.623 99.0125 102.265 82.3901 82.0007 76.2273L73.8092 73.7361C71.7302 73.1038 71.7653 70.1483 73.8587 69.5656L80.8221 67.6273C101.714 61.8119 117.648 44.8733 122.175 23.6645L122.325 22.9637Z" fill="white"/>
</svg>
