<svg width="154" height="162" viewBox="0 0 154 162" fill="none" xmlns="http://www.w3.org/2000/svg">
<path d="M138.716 0H53.9058L53.7688 -1.21527e-05C49.6659 -0.000559733 47.6005 -0.000835385 43.2357 4.51969C38.8225 9.09024 3.64913 64.51 3.64913 64.51C1.80789 66.9607 0.716797 70.0071 0.716797 73.3084V146.617C0.716797 154.714 7.28105 161.279 15.3785 161.279H94.5516C98.4018 161.279 101.905 159.794 104.522 157.367L149.121 112.748C151.82 110.092 153.492 106.409 153.492 102.339V14.6617C153.492 6.56426 146.876 0 138.716 0Z" fill="#121214"/>
<path d="M97.3107 14.1628C97.6336 12.6503 99.8137 12.7155 100.046 14.2446C102.734 31.9688 115.698 46.4004 133.034 50.9669L140.61 52.9624C142.338 53.4176 142.365 55.8606 140.648 56.3549L132.071 58.8234C115.24 63.6674 102.747 77.8341 100.047 95.1385C99.8091 96.6609 97.6408 96.7275 97.3103 95.2225L97.1791 94.6255C93.3995 77.4184 80.6249 63.5923 63.7698 58.4662L56.9563 56.3941C55.2271 55.8682 55.2563 53.4098 56.9975 52.9252L62.7895 51.313C80.1673 46.4758 93.4202 32.3867 97.1862 14.7458L97.3107 14.1628Z" fill="white"/>
</svg>
