<svg width="48" height="48" viewBox="0 0 48 48" fill="none" xmlns="http://www.w3.org/2000/svg">
<path d="M0 24C0 10.7452 10.7452 0 24 0C37.2548 0 48 10.7452 48 24C48 37.2548 37.2548 48 24 48C10.7452 48 0 37.2548 0 24Z" fill="white"/>
<path d="M23.3352 7.11425C23.47 6.48247 24.3807 6.5097 24.4776 7.14841C25.6005 14.5517 31.0156 20.5797 38.2566 22.4871L41.4209 23.3206C42.1427 23.5108 42.1543 24.5312 41.4369 24.7377L37.8543 25.7688C30.8242 27.7921 25.606 33.7094 24.478 40.9374C24.3787 41.5733 23.4731 41.6011 23.335 40.9725L23.2802 40.7231C21.7015 33.5358 16.3656 27.7607 9.32534 25.6196L6.47936 24.754C5.75706 24.5344 5.76926 23.5075 6.49657 23.3051L8.91584 22.6317C16.1745 20.6112 21.7101 14.7263 23.2832 7.35773L23.3352 7.11425Z" fill="#BEB2F9"/>
</svg>
